<?xml version="1.0" standalone="no"?>
<svg version="1.0" xmlns="http://www.w3.org/2000/svg"
 width="1024.000000pt" height="1024.000000pt" viewBox="0 0 1024.000000 1024.000000"
 preserveAspectRatio="xMidYMid meet" fill="currentColor">

<g transform="translate(0.000000,1024.000000) scale(0.100000,-0.100000)"
fill="#000000" stroke="none">
<path d="M4795 10229 c-1132 -68 -2257 -541 -3096 -1302 -978 -886 -1553
-2041 -1681 -3372 -16 -168 -16 -702 0 -870 51 -532 166 -1012 355 -1480 522
-1298 1576 -2342 2877 -2850 450 -176 864 -275 1385 -331 222 -24 745 -24 970
0 764 81 1432 294 2064 656 595 341 1147 833 1560 1389 879 1183 1204 2682
895 4127 -185 869 -607 1694 -1198 2346 -1063 1172 -2555 1781 -4131 1687z
m446 -1165 c169 -50 303 -184 355 -353 8 -25 14 -63 14 -83 0 -59 15 -83 72
-115 220 -125 477 -393 663 -693 329 -531 564 -1282 654 -2085 35 -314 44
-491 44 -835 0 -678 -76 -1261 -239 -1839 -37 -131 -49 -160 -74 -183 -43 -40
-101 -39 -141 1 -43 44 -42 64 11 248 111 380 192 879 221 1358 13 216 7 813
-10 1000 -50 545 -150 1038 -293 1455 -216 627 -540 1122 -886 1352 -31 21
-62 38 -68 38 -6 0 -25 -22 -43 -50 -97 -150 -305 -240 -489 -211 -84 13 -195
61 -256 112 -54 46 -121 139 -146 205 -126 339 113 693 471 694 50 0 108 -7
140 -16z m-1651 -1634 c185 -16 412 -50 450 -68 22 -11 42 -31 54 -55 16 -34
17 -42 4 -75 -8 -21 -27 -44 -46 -55 -31 -18 -34 -18 -209 7 -449 64 -790 58
-1111 -19 -203 -49 -398 -143 -535 -257 -118 -99 -213 -248 -263 -413 -26 -83
-28 -103 -28 -265 0 -143 4 -193 22 -272 36 -162 91 -314 184 -500 48 -98 88
-188 88 -200 0 -38 -36 -85 -73 -97 -50 -17 -98 5 -133 61 -58 91 -166 331
-214 474 -132 397 -125 756 23 1049 120 239 342 432 632 550 153 62 413 121
610 138 91 8 438 6 545 -3z m3630 -11 c229 -22 453 -81 636 -168 142 -68 245
-140 350 -245 146 -147 226 -286 282 -495 23 -88 26 -113 26 -291 -1 -164 -4
-211 -22 -295 -83 -376 -260 -735 -555 -1124 -131 -174 -174 -220 -212 -227
-69 -13 -125 33 -125 101 0 39 8 53 85 149 323 406 519 782 596 1146 31 150
32 360 0 485 -42 166 -130 317 -248 425 -216 198 -562 318 -963 336 -184 9
-225 31 -223 120 1 40 41 90 77 97 28 5 165 -2 296 -14z m-1103 -99 c54 -32
61 -116 14 -163 -12 -12 -91 -37 -227 -72 -1569 -398 -3164 -1538 -3772 -2695
-140 -268 -232 -580 -232 -792 l0 -58 45 0 c224 0 438 -170 490 -391 75 -321
-167 -629 -495 -629 -231 0 -436 160 -495 385 -30 116 -12 256 47 367 33 62
123 159 168 183 l27 14 6 158 c4 104 13 192 27 258 214 1006 1323 2160 2780
2895 478 241 895 399 1371 519 179 46 203 48 246 21z m-865 -2083 c75 -34 151
-106 185 -176 25 -50 28 -67 28 -161 0 -101 -1 -108 -34 -168 -70 -129 -181
-195 -326 -195 -111 0 -182 28 -255 102 -78 78 -102 134 -108 246 -5 116 17
181 90 261 81 88 170 126 288 121 55 -3 91 -10 132 -30z m-2587 -590 c12 -7
81 -74 155 -151 868 -894 2211 -1624 3385 -1841 509 -94 985 -90 1329 10 90
26 254 90 269 105 5 4 -3 40 -17 80 -38 106 -44 196 -17 299 24 98 56 156 124
228 92 98 201 149 337 159 288 22 540 -214 540 -505 0 -144 -48 -259 -150
-361 -161 -161 -399 -196 -601 -88 l-57 29 -73 -37 c-175 -88 -380 -148 -616
-180 -175 -24 -561 -24 -763 -1 -774 92 -1582 374 -2370 827 -538 309 -992
653 -1407 1065 -179 177 -213 216 -218 246 -16 86 79 159 150 116z m1014
-1804 c19 -19 44 -69 76 -153 26 -69 80 -194 121 -277 267 -560 602 -913 984
-1039 79 -26 97 -28 245 -28 149 0 166 2 245 28 293 98 540 309 780 671 40 61
80 115 89 120 73 46 166 -6 164 -91 -1 -39 -114 -217 -228 -359 -101 -126
-283 -298 -393 -373 -724 -494 -1528 -133 -2052 920 -105 211 -204 461 -203
512 1 86 109 128 172 69z"/>
<path d="M5030 8861 c-217 -71 -290 -317 -145 -489 14 -17 53 -45 87 -61 156
-79 347 -6 408 155 71 190 -59 390 -260 400 -36 2 -76 0 -90 -5z"/>
<path d="M1883 3320 c-185 -37 -290 -241 -211 -411 52 -113 145 -173 268 -173
123 0 216 60 268 173 98 214 -94 457 -325 411z"/>
<path d="M8203 3320 c-81 -17 -155 -71 -200 -148 -36 -61 -44 -180 -18 -249
43 -112 156 -188 280 -187 118 0 219 66 268 173 31 66 30 179 -1 242 -60 123
-200 195 -329 169z"/>
</g>
</svg>
